<?xml version="1.0" encoding="UTF-8" standalone="no"?>
<svg
   xmlns:dc="http://purl.org/dc/elements/1.1/"
   xmlns:cc="http://creativecommons.org/ns#"
   xmlns:rdf="http://www.w3.org/1999/02/22-rdf-syntax-ns#"
   xmlns:svg="http://www.w3.org/2000/svg"
   xmlns="http://www.w3.org/2000/svg"
   xmlns:xlink="http://www.w3.org/1999/xlink"
   xmlns:sodipodi="http://sodipodi.sourceforge.net/DTD/sodipodi-0.dtd"
   xmlns:inkscape="http://www.inkscape.org/namespaces/inkscape"
   width="115.09375mm"
   height="115.09375mm"
   viewBox="0 0 115.09375 115.09375"
   version="1.1"
   id="svg8"
   inkscape:version="1.0.2 (e86c8708, 2021-01-15)"
   sodipodi:docname="thrustcurve.svg">
  <defs
     id="defs2">
    <linearGradient
       inkscape:collect="always"
       id="linearGradient1040">
      <stop
         style="stop-color:#0e76bc;stop-opacity:1"
         offset="0"
         id="stop1038" />
      <stop
         style="stop-color:#00aeee;stop-opacity:1"
         offset="1"
         id="stop1036" />
    </linearGradient>
    <linearGradient
       inkscape:collect="always"
       xlink:href="#linearGradient1040"
       id="linearGradient1137"
       gradientUnits="userSpaceOnUse"
       gradientTransform="translate(46.302082,85.989586)"
       x1="57.729713"
       y1="114.58408"
       x2="57.729713"
       y2="1.2124054" />
  </defs>
  <sodipodi:namedview
     id="base"
     pagecolor="#ffffff"
     bordercolor="#666666"
     borderopacity="1.0"
     inkscape:pageopacity="0.0"
     inkscape:pageshadow="2"
     inkscape:zoom="1.4525946"
     inkscape:cx="288.90914"
     inkscape:cy="205.06642"
     inkscape:document-units="mm"
     inkscape:current-layer="layer3"
     inkscape:document-rotation="0"
     showgrid="false"
     inkscape:window-width="1975"
     inkscape:window-height="1295"
     inkscape:window-x="321"
     inkscape:window-y="25"
     inkscape:window-maximized="0"
     inkscape:snap-global="false"
     fit-margin-top="0"
     fit-margin-left="0"
     fit-margin-right="0"
     fit-margin-bottom="0">
    <inkscape:grid
       type="xygrid"
       id="grid850"
       originx="-46.302082"
       originy="-85.989589" />
  </sodipodi:namedview>
  <metadata
     id="metadata5">
    <rdf:RDF>
      <cc:Work
         rdf:about="">
        <dc:format>image/svg+xml</dc:format>
        <dc:type
           rdf:resource="http://purl.org/dc/dcmitype/StillImage" />
        <dc:title></dc:title>
      </cc:Work>
    </rdf:RDF>
  </metadata>
  <g
     inkscape:groupmode="layer"
     id="layer3"
     inkscape:label="background"
     style="display:none">
    <rect
       style="display:inline;opacity:1;fill:url(#linearGradient1137);fill-opacity:1;fill-rule:evenodd;stroke:none;stroke-width:1.1;stroke-linejoin:miter;stroke-miterlimit:4;stroke-dasharray:none;stop-color:#000000"
       id="rect1113"
       width="115.09375"
       height="115.09375"
       x="46.302082"
       y="85.989586"
       transform="translate(-46.302081,-85.989586)" />
  </g>
  <g
     inkscape:groupmode="layer"
     id="layer2"
     inkscape:label="foreground"
     style="display:inline;opacity:1"
     transform="translate(-46.302082,-85.989586)">
    <path
       style="fill:#f45a2c;fill-opacity:1;stroke:none;stroke-width:0.264583px;stroke-linecap:butt;stroke-linejoin:miter;stroke-opacity:1"
       d="m 81.773828,115.44008 c -23.39301,12.91701 -31.247685,41.94253 -18.71441,54.7193 24.026707,24.49349 58.634082,-3.57246 68.958522,-24.30839 3.39178,-6.81216 -12.56148,-12.98512 -16.06999,-6.00081 -7.29078,14.51355 -30.047795,39.97843 -47.803093,24.00326 -13.433987,-12.08711 -0.492114,-38.7884 13.628971,-48.41336 z"
       id="path918-3"
       sodipodi:nodetypes="cssssc" />
    <path
       id="path918"
       style="fill:#faa831;fill-opacity:1;stroke:none;stroke-width:0.264583px;stroke-linecap:butt;stroke-linejoin:miter;stroke-opacity:1"
       d="m 118.22091,146.65333 c -8.91555,13.74043 -15.79922,24.23255 -36.638879,27.83708 19.177789,-1.5117 33.611319,-13.39741 41.912449,-24.58238 2.77077,-3.73334 -2.36212,-7.74176 -5.27357,-3.2547 z"
       sodipodi:nodetypes="scss" />
    <path
       id="path852"
       style="fill:#ffffff;stroke:#000000;stroke-width:1.9;stroke-linecap:butt;stroke-linejoin:miter;stroke-miterlimit:4;stroke-dasharray:none;stroke-opacity:1"
       inkscape:transform-center-x="-5.2870129"
       inkscape:transform-center-y="-13.809153"
       d="m 131.39236,141.61017 1.33544,-1.87132 2.99344,3.80491 2.72158,-5.83386 -2.39835,-3.76457 c 0,0 4.51929,-9.20344 6.75513,-14.58833 2.1666,-5.21818 1.23896,-11.83249 -1.4159,-17.29932 -5.75011,2.01682 -11.07886,6.0435 -13.23117,11.26757 -2.22107,5.391 -5.52329,15.09838 -5.52329,15.09838 l -4.35662,0.97015 -2.19457,6.05239 4.80675,-0.57931 -0.37675,2.26839 c 2.45456,2.40238 6.98392,5.07229 10.88431,4.47493 z"
       sodipodi:nodetypes="cccccscscccccc" />
    <path
       style="fill:#ffffff;stroke:#000000;stroke-width:1.1;stroke-linecap:butt;stroke-linejoin:round;stroke-miterlimit:4;stroke-dasharray:none;stroke-opacity:1"
       d="m 135.14875,132.72472 3.29407,4.98519 -2.7217,5.83398 -3.88129,-4.91867 z"
       id="path854" />
    <path
       style="fill:#ffffff;stroke:#000000;stroke-width:1.1;stroke-linecap:butt;stroke-linejoin:round;stroke-miterlimit:4;stroke-dasharray:none;stroke-opacity:1"
       d="m 124.12547,128.19192 -5.85306,1.20193 -2.19437,6.05208 6.22173,-0.74005 z"
       id="path854-7" />
    <path
       id="path967"
       style="fill:#000000;stroke:none;stroke-width:0.264583px;stroke-linecap:butt;stroke-linejoin:miter;stroke-opacity:1"
       d="m 145.52083,146.49804 c -0.27051,0.33152 -0.54874,0.66685 -0.83302,1.00459 v 53.58071 h 0.83302 z m -14.57585,14.67507 c -0.37186,0.31631 -0.74509,0.63217 -1.12345,0.94671 v 38.96352 h 1.12345 z m -75.555598,2.77709 0.173117,37.13314 H 68.281621 V 178.10593 C 63.480603,175.12412 59.105082,170.5335 55.389382,163.9502 Z m 64.665308,5.51491 c -0.4871,0.32909 -0.97705,0.65454 -1.46968,0.97617 v 30.64206 h 1.46968 z m -10.7177,6.34277 c -0.83224,0.42169 -1.6678,0.82835 -2.50682,1.21853 v 24.05693 h 2.50682 z m -38.203349,3.85971 v 21.41575 h 7.26054 v -19.04742 c -2.4891,-0.47199 -4.917229,-1.24909 -7.26054,-2.36833 z m 28.263392,0.33383 c -1.671016,0.55565 -3.343878,1.03447 -5.013132,1.42265 v 19.65927 h 5.013132 z m -10.112563,2.32441 c -2.419813,0.28671 -4.817776,0.36095 -7.173722,0.19171 v 18.5658 h 7.173722 z" />
  </g>
</svg>
