<?xml version="1.0" encoding="UTF-8" standalone="no"?>
<svg
   xmlns:dc="http://purl.org/dc/elements/1.1/"
   xmlns:cc="http://creativecommons.org/ns#"
   xmlns:rdf="http://www.w3.org/1999/02/22-rdf-syntax-ns#"
   xmlns:svg="http://www.w3.org/2000/svg"
   xmlns="http://www.w3.org/2000/svg"
   xmlns:sodipodi="http://sodipodi.sourceforge.net/DTD/sodipodi-0.dtd"
   xmlns:inkscape="http://www.inkscape.org/namespaces/inkscape"
   fill="#000000"
   height="800px"
   width="800px"
   version="1.1"
   id="Layer_1"
   viewBox="0 0 512 512"
   xml:space="preserve"
   sodipodi:docname="astronaut.svg"
   inkscape:version="1.0.2 (e86c8708, 2021-01-15)"><metadata
   id="metadata898"><rdf:RDF><cc:Work
       rdf:about=""><dc:format>image/svg+xml</dc:format><dc:type
         rdf:resource="http://purl.org/dc/dcmitype/StillImage" /><dc:title></dc:title></cc:Work></rdf:RDF></metadata><defs
   id="defs896" /><sodipodi:namedview
   pagecolor="#ffffff"
   bordercolor="#666666"
   borderopacity="1"
   objecttolerance="10"
   gridtolerance="10"
   guidetolerance="10"
   inkscape:pageopacity="0"
   inkscape:pageshadow="2"
   inkscape:window-width="1255"
   inkscape:window-height="913"
   id="namedview894"
   showgrid="false"
   inkscape:zoom="0.63860795"
   inkscape:cx="400"
   inkscape:cy="400"
   inkscape:window-x="694"
   inkscape:window-y="187"
   inkscape:window-maximized="0"
   inkscape:current-layer="Layer_1" />
<g
   id="g867">
	<g
   id="g865">
		
	</g>
</g>
<g
   id="g873">
	<g
   id="g871">
		<path
   d="M467.254,354.003c-0.145-0.712-0.356-1.414-0.634-2.093c-0.278-0.668-0.622-1.313-1.023-1.914    c-0.4-0.612-0.867-1.18-1.38-1.692c-0.512-0.512-1.08-0.979-1.692-1.391c-0.601-0.401-1.247-0.735-1.926-1.013    c-0.668-0.278-1.368-0.501-2.08-0.646c-1.436-0.289-2.916-0.289-4.352,0c-0.701,0.145-1.402,0.367-2.081,0.646    c-0.669,0.278-1.313,0.612-1.914,1.013c-0.613,0.412-1.181,0.879-1.693,1.391c-0.512,0.512-0.979,1.08-1.391,1.692    c-0.401,0.601-0.746,1.247-1.024,1.914c-0.278,0.679-0.49,1.38-0.634,2.093c-0.145,0.712-0.211,1.447-0.211,2.17    c0,0.724,0.067,1.458,0.21,2.17c0.145,0.712,0.356,1.414,0.634,2.081c0.278,0.679,0.623,1.325,1.024,1.926    c0.412,0.612,0.879,1.18,1.391,1.692c0.512,0.512,1.08,0.979,1.693,1.38c0.601,0.401,1.245,0.746,1.914,1.024    c0.679,0.278,1.38,0.49,2.081,0.634c0.722,0.145,1.458,0.223,2.182,0.223c2.927,0,5.799-1.191,7.868-3.261    c0.513-0.512,0.981-1.08,1.38-1.692c0.401-0.601,0.746-1.247,1.024-1.926c0.278-0.668,0.49-1.369,0.634-2.081    c0.145-0.712,0.223-1.447,0.223-2.17C467.477,355.451,467.399,354.716,467.254,354.003z"
   id="path869" />
	</g>
</g>
<g
   id="g879">
	<g
   id="g877">
		<path
   d="M456.348,333.913c6.146,0,11.13-4.983,11.13-11.13v-22.261c0-30.687-24.966-55.652-55.652-55.652h-11.13v-44.679    c19.001-1.695,33.948-17.695,33.948-37.13v-36.73c0-20.56-16.727-37.287-37.287-37.287h-7.77    c-2.385-5.728-5.139-11.309-8.258-16.696c-6.299-10.91-14.042-20.991-23.016-29.962C330.993,15.053,294.658,0,256,0    c-51.492,0-99.513,27.719-125.323,72.336c-3.122,5.392-5.878,10.976-8.263,16.708h-7.77c-20.56,0-37.287,16.727-37.287,37.287    v36.73c0,19.434,14.947,35.435,33.948,37.13v44.679h-11.13c-30.687,0-55.652,24.966-55.652,55.652V500.87    c0,6.147,4.984,11.13,11.13,11.13h44.522h311.652h44.522c6.146,0,11.13-4.983,11.13-11.13V389.565    c0-6.147-4.984-11.13-11.13-11.13s-11.13,4.983-11.13,11.13v100.174h-22.261v-33.391V269.037    c12.957,4.594,22.261,16.973,22.261,31.485v22.261C445.217,328.93,450.202,333.913,456.348,333.913z M89.043,456.348v33.391    H66.783V300.522c0-14.512,9.304-26.89,22.261-31.485V456.348z M397.356,111.304c8.286,0,15.026,6.741,15.026,15.026v36.73    c0,7.138-5.003,13.13-11.687,14.652v-33.017c0-1.523-0.028-3.041-0.075-4.558c-0.012-0.38-0.034-0.758-0.049-1.136    c-0.046-1.164-0.099-2.326-0.171-3.487c-0.023-0.376-0.055-0.751-0.081-1.126c-0.083-1.187-0.179-2.371-0.292-3.553    c-0.03-0.317-0.065-0.633-0.097-0.951c-0.129-1.266-0.274-2.528-0.436-3.789c-0.03-0.233-0.06-0.466-0.092-0.699    c-0.185-1.381-0.39-2.758-0.613-4.132c-0.019-0.116-0.037-0.233-0.057-0.348c-0.535-3.226-1.167-6.432-1.919-9.612H397.356z     M133.565,189.217v-44.522c0-1.566,0.04-3.129,0.098-4.688c0.021-0.548,0.052-1.094,0.081-1.643    c0.051-1.004,0.115-2.006,0.19-3.006c0.05-0.658,0.101-1.316,0.162-1.971c0.082-0.902,0.184-1.8,0.286-2.698    c0.078-0.678,0.145-1.358,0.234-2.035c0.178-1.362,0.383-2.718,0.607-4.073c0.138-0.828,0.296-1.652,0.451-2.478    c0.127-0.676,0.254-1.352,0.392-2.026c0.17-0.83,0.349-1.66,0.536-2.485c0.158-0.696,0.325-1.389,0.495-2.083    c0.191-0.781,0.378-1.563,0.585-2.339c0.345-1.297,0.709-2.588,1.097-3.873c0.174-0.578,0.364-1.15,0.547-1.725    c0.319-1.005,0.646-2.009,0.992-3.007c2.528-7.303,5.74-14.368,9.627-21.08C171.79,45.722,212.429,22.261,256,22.261    c32.71,0,63.455,12.735,86.57,35.863c7.599,7.599,14.153,16.128,19.487,25.366c3.884,6.708,7.096,13.771,9.623,21.07    c0.352,1.013,0.682,2.032,1.007,3.053c0.158,0.5,0.328,0.995,0.481,1.497c0.411,1.354,0.791,2.714,1.155,4.079    c0.201,0.757,0.384,1.519,0.57,2.279c0.175,0.715,0.348,1.43,0.51,2.147c0.184,0.811,0.359,1.624,0.526,2.439    c0.142,0.697,0.274,1.396,0.404,2.095c0.15,0.806,0.305,1.609,0.44,2.419c0.226,1.361,0.431,2.726,0.611,4.096    c0.087,0.662,0.152,1.329,0.229,1.993c0.105,0.912,0.206,1.824,0.289,2.738c0.06,0.651,0.111,1.303,0.16,1.956    c0.076,1.004,0.139,2.01,0.191,3.019c0.028,0.545,0.06,1.09,0.081,1.636c0.059,1.559,0.098,3.122,0.098,4.688v44.522v55.652    h-244.87V189.217z M99.617,163.061v-36.73c0-8.286,6.741-15.026,15.026-15.026h0.543c-0.754,3.181-1.385,6.39-1.92,9.617    c-0.019,0.111-0.036,0.223-0.053,0.334c-0.226,1.381-0.431,2.766-0.617,4.154c-0.03,0.225-0.059,0.45-0.088,0.673    c-0.164,1.268-0.309,2.537-0.44,3.81c-0.032,0.313-0.066,0.625-0.095,0.938c-0.114,1.183-0.209,2.369-0.293,3.556    c-0.027,0.376-0.058,0.752-0.081,1.129c-0.072,1.16-0.127,2.322-0.173,3.486c-0.014,0.378-0.037,0.757-0.049,1.135    c-0.047,1.517-0.075,3.036-0.075,4.559v33.017C104.621,176.19,99.617,170.199,99.617,163.061z M400.696,445.217H211.478    c-6.146,0-11.13,4.983-11.13,11.13s4.984,11.13,11.13,11.13h189.217v22.261H111.304v-22.261h33.762    c6.146,0,11.13-4.983,11.13-11.13s-4.984-11.13-11.13-11.13h-33.762V267.13h11.13h267.13h11.13V445.217z"
   id="path875" />
	</g>
</g>
<g
   id="g885">
	<g
   id="g883">
		<path
   d="M326.086,80.327c-17.35-6.179-43.593-13.545-70.086-13.545s-52.736,7.366-70.086,13.545    c-17.997,6.411-30.088,23.551-30.088,42.652v54.358c0,24.963,20.309,45.272,45.272,45.272h109.804    c24.963,0,45.272-20.309,45.272-45.272v-54.358C356.174,103.878,344.083,86.738,326.086,80.327z M333.913,177.337    c0,12.688-10.322,23.011-23.011,23.011H201.098c-12.689,0-23.011-10.322-23.011-23.011v-54.358    c0-9.709,6.146-18.422,15.297-21.681c15.697-5.591,39.303-12.255,62.616-12.255s46.919,6.664,62.616,12.255    c9.15,3.259,15.297,11.972,15.297,21.681V177.337z"
   id="path881" />
	</g>
</g>
<g
   id="g891">
	<g
   id="g889">
		<path
   d="M186.146,448.479c-0.513-0.512-1.081-0.979-1.693-1.38c-0.601-0.401-1.258-0.746-1.924-1.024    c-0.669-0.278-1.369-0.49-2.081-0.634c-1.436-0.289-2.916-0.289-4.352,0c-0.713,0.145-1.415,0.356-2.081,0.634    s-1.313,0.623-1.914,1.024c-0.613,0.401-1.181,0.868-1.693,1.38c-0.523,0.512-0.979,1.08-1.391,1.692    c-0.4,0.601-0.746,1.247-1.024,1.926c-0.278,0.668-0.489,1.369-0.634,2.081c-0.145,0.712-0.21,1.447-0.21,2.17    c0,0.723,0.067,1.458,0.21,2.17c0.146,0.712,0.356,1.414,0.634,2.081c0.278,0.679,0.624,1.325,1.024,1.926    c0.412,0.612,0.868,1.18,1.391,1.692c0.512,0.512,1.08,0.979,1.693,1.38c0.601,0.401,1.247,0.746,1.914,1.024    s1.368,0.49,2.081,0.634c0.722,0.145,1.447,0.223,2.17,0.223c0.733,0,1.468-0.078,2.182-0.223    c0.712-0.145,1.414-0.356,2.081-0.634c0.668-0.278,1.323-0.623,1.924-1.024c0.612-0.401,1.181-0.868,1.693-1.38    c2.069-2.07,3.261-4.942,3.261-7.869S188.217,450.549,186.146,448.479z"
   id="path887" />
	</g>
</g>
<g
   aria-label="?"
   id="text902"
   style="font-style:normal;font-weight:normal;font-size:25.6px;line-height:1.25;font-family:sans-serif;fill:#000000;fill-opacity:1;stroke:none;stroke-width:0.64"><path
     d="m 260.37272,370.32167 q 4.75227,1.35779 6.56266,4.75227 2.03668,3.16817 1.35779,6.33635 -0.6789,3.16818 -3.84708,5.43116 -2.94187,2.26298 -7.92044,1.58409 -6.78895,-1.35779 -11.31491,-5.20486 -4.52597,-4.07337 -6.56266,-9.27824 -2.03668,-5.20486 -1.13149,-11.31491 0.9052,-6.11006 5.20486,-11.76752 2.71558,-3.62077 7.24155,-7.24154 4.75227,-3.84708 9.50453,-7.46785 4.75227,-3.84707 8.82564,-7.69414 4.07337,-3.84707 5.65746,-7.92044 1.81038,-4.29967 0.22629,-8.59934 -1.35779,-4.52597 -7.92044,-9.27823 -0.67889,-0.2263 -1.35779,-0.4526 -0.67889,-0.2263 -1.58409,-0.4526 -9.73083,0.4526 -17.87757,5.88376 -8.14674,5.43116 -14.03049,13.1253 -3.16818,3.84708 -7.01525,4.29967 -3.62078,0.4526 -6.33636,-1.35779 -2.71558,-2.03668 -3.62077,-5.65746 -0.67889,-3.84707 2.03669,-8.14674 4.52596,-5.88375 10.63602,-11.31491 6.33635,-5.43116 13.3516,-9.05194 7.24155,-3.62077 14.70939,-5.20486 7.46785,-1.58409 14.2568,0 6.78895,1.35779 12.44641,6.33635 5.88375,4.97857 9.73083,14.4831 2.48928,6.11005 2.03668,11.76751 -0.4526,5.65746 -2.71558,10.86232 -2.26298,5.20486 -6.11005,9.73083 -3.84708,4.29967 -8.59934,8.14674 -1.58409,1.35779 -5.65746,4.07337 -3.84707,2.48928 -7.46785,5.88376 -3.62077,3.16818 -5.88375,6.78895 -2.03669,3.39447 -0.4526,6.78895 0.4526,0.4526 0.6789,0.4526 0.67889,0.45259 1.35779,0.45259 0.90519,0 1.58408,0.2263 z m -19.00906,41.1863 q 0,-5.20486 3.62078,-8.82564 3.62077,-3.62077 8.82563,-3.62077 5.20486,0 8.82564,3.62077 3.84707,3.62078 3.84707,8.82564 0,5.20486 -3.84707,9.05193 -3.62078,3.62078 -8.82564,3.62078 -5.20486,0 -8.82563,-3.62078 -3.62078,-3.84707 -3.62078,-9.05193 z"
     style="font-style:normal;font-variant:normal;font-weight:normal;font-stretch:normal;font-size:204.8px;font-family:Chalkboard;-inkscape-font-specification:'Chalkboard, Normal';font-variant-ligatures:normal;font-variant-caps:normal;font-variant-numeric:normal;font-variant-east-asian:normal;stroke-width:0.64"
     id="path908" /></g></svg>
