<?xml version="1.0" encoding="UTF-8" standalone="no"?>
<svg
   xmlns:dc="http://purl.org/dc/elements/1.1/"
   xmlns:cc="http://creativecommons.org/ns#"
   xmlns:rdf="http://www.w3.org/1999/02/22-rdf-syntax-ns#"
   xmlns:svg="http://www.w3.org/2000/svg"
   xmlns="http://www.w3.org/2000/svg"
   xmlns:xlink="http://www.w3.org/1999/xlink"
   xmlns:sodipodi="http://sodipodi.sourceforge.net/DTD/sodipodi-0.dtd"
   xmlns:inkscape="http://www.inkscape.org/namespaces/inkscape"
   width="48"
   height="48"
   viewBox="0 0 12.7 12.7"
   version="1.1"
   id="svg8"
   inkscape:version="1.0.2 (e86c8708, 2021-01-15)"
   sodipodi:docname="applogo.svg"
   inkscape:export-filename="/Users/kieffer/projects/flightcard/touch.png"
   inkscape:export-xdpi="360"
   inkscape:export-ydpi="360">
  <defs
     id="defs2">
    <linearGradient
       inkscape:collect="always"
       id="linearGradient1507">
      <stop
         style="stop-color:#ff0000;stop-opacity:1"
         offset="0"
         id="stop1503" />
      <stop
         style="stop-color:#ffff00;stop-opacity:1"
         offset="1"
         id="stop1505" />
    </linearGradient>
    <linearGradient
       inkscape:collect="always"
       id="linearGradient1499">
      <stop
         style="stop-color:#b0d4ff;stop-opacity:1"
         offset="0"
         id="stop1495" />
      <stop
         style="stop-color:#4600ff;stop-opacity:1"
         offset="1"
         id="stop1497" />
    </linearGradient>
    <linearGradient
       inkscape:collect="always"
       xlink:href="#linearGradient1499"
       id="linearGradient1533"
       x1="6.3499999"
       y1="1.5875"
       x2="6.3872981"
       y2="9.4480724"
       gradientUnits="userSpaceOnUse" />
    <linearGradient
       inkscape:collect="always"
       xlink:href="#linearGradient1507"
       id="linearGradient1535"
       x1="24"
       y1="47"
       x2="24"
       y2="24"
       gradientUnits="userSpaceOnUse"
       gradientTransform="scale(0.26458333)" />
  </defs>
  <sodipodi:namedview
     id="base"
     pagecolor="#ffffff"
     bordercolor="#666666"
     borderopacity="1.0"
     inkscape:pageopacity="0.0"
     inkscape:pageshadow="2"
     inkscape:zoom="14.187501"
     inkscape:cx="24"
     inkscape:cy="23.999998"
     inkscape:document-units="px"
     inkscape:current-layer="layer1"
     inkscape:document-rotation="0"
     showgrid="false"
     units="px"
     inkscape:window-width="1388"
     inkscape:window-height="847"
     inkscape:window-x="52"
     inkscape:window-y="25"
     inkscape:window-maximized="0"
     inkscape:object-paths="true"
     inkscape:snap-intersection-paths="false"
     inkscape:snap-smooth-nodes="true">
    <inkscape:grid
       type="xygrid"
       id="grid10" />
  </sodipodi:namedview>
  <metadata
     id="metadata5">
    <rdf:RDF>
      <cc:Work
         rdf:about="">
        <dc:format>image/svg+xml</dc:format>
        <dc:type
           rdf:resource="http://purl.org/dc/dcmitype/StillImage" />
        <dc:title></dc:title>
      </cc:Work>
    </rdf:RDF>
  </metadata>
  <g
     inkscape:label="Layer 1"
     inkscape:groupmode="layer"
     id="layer1">
    <rect
       style="fill:url(#linearGradient1533);stroke:#000000;stroke-width:0.264583;stroke-linecap:round;stroke-linejoin:round;stroke-miterlimit:4;stroke-dasharray:none;stop-color:#000000;fill-opacity:1"
       id="rect14"
       width="8.2020836"
       height="11.377083"
       x="2.2489581"
       y="1.1906248"
       rx="1.1906247"
       ry="1.1906252" />
    <path
       id="rect14-6-6"
       style="fill:url(#linearGradient1535);fill-opacity:1;stroke:#000000;stroke-width:0.13229167;stroke-linecap:round;stroke-linejoin:round;stroke-miterlimit:4;stroke-dasharray:none;stop-color:#000000"
       d="m 6.0854166,7.1251465 c -0.5945254,7.1e-5 -1.1391797,0.332327 -1.4112833,0.860929 -0.048494,-0.04328 -0.1112202,-0.06719 -0.1762167,-0.06718 -0.1461254,0 -0.2645833,0.118458 -0.2645833,0.264584 0,0.146125 0.1184579,0.264583 0.2645833,0.264583 0.00742,-3.3e-5 0.014833,-3.71e-4 0.02222,-0.001 -0.014841,0.08776 -0.022273,0.176612 -0.02222,0.265617 1.474e-4,0.08885 0.00775,0.177525 0.022738,0.2651 -0.00758,-2.54e-4 -0.015158,-4.23e-4 -0.022738,-5.29e-4 -0.2658464,1.28e-4 -0.5219081,0.100323 -0.717269,0.280624 -0.1171236,-0.138105 -0.277948,-0.23201 -0.4557861,-0.266134 0.073485,-0.07429 0.114708,-0.174559 0.1147218,-0.279052 0,-0.219188 -0.177687,-0.396875 -0.396875,-0.396875 -0.1062665,1.2e-5 -0.2080895,0.04264 -0.28267,0.118339 -0.1182926,-0.197433 -0.2977161,-0.350913 -0.51108,-0.437194 V 9.9580486 11.35848 c 0,0.659607 0.531019,1.190625 1.190625,1.190625 h 5.8208333 c 0.6596059,0 1.1906254,-0.531018 1.1906254,-1.190625 V 10.084656 9.3244955 c -0.125192,-0.05458 -0.260303,-0.08273 -0.396875,-0.08268 -0.090138,6.1e-5 -0.1798465,0.0124 -0.2666507,0.03669 0.00124,-0.01219 0.00196,-0.02443 0.00206,-0.03669 0,-0.219188 -0.177687,-0.396875 -0.396875,-0.396875 0.085872,-0.114496 0.1322917,-0.253755 0.1322917,-0.396875 -1.085e-4,-0.329493 -0.2427028,-0.608663 -0.5689576,-0.654741 0.025913,-0.04174 0.039691,-0.08988 0.039791,-0.139009 0,-0.146126 -0.1184579,-0.264583 -0.2645833,-0.264583 -0.1461254,0 -0.2645833,0.118457 -0.2645833,0.264583 6.9e-5,0.07933 0.035728,0.154439 0.097152,0.204638 -0.083368,0.04234 -0.1568132,0.101868 -0.2154909,0.174667 -0.1239071,-0.07501 -0.2659796,-0.114682 -0.4108244,-0.114722 -0.1468961,2.4e-5 -0.2909041,0.04081 -0.4159954,0.117822 C 7.2597179,7.4804065 6.7002435,7.1252735 6.0854132,7.1251485 Z m 3.9687504,0.529167 c -0.1461259,0 -0.2645838,0.118458 -0.2645838,0.264583 0,0.146126 0.1184579,0.264584 0.2645838,0.264584 0.146125,0 0.264583,-0.118458 0.264583,-0.264584 0,-0.146125 -0.118458,-0.264583 -0.264583,-0.264583 z"
       sodipodi:nodetypes="cccsccccccccccccsssscccccccccsccccccsssss" />
    <path
       style="fill:#ffffff;stroke:#000000;stroke-width:0.13229167;stroke-linecap:butt;stroke-linejoin:round;stroke-miterlimit:4;stroke-dasharray:none;stroke-opacity:1"
       d="M 6.35,2.9104166 C 5.8208333,3.4395833 5.55625,4.188995 5.55625,4.7625 l 0,4.4979166 -1.3229167,1.5875004 0,1.058333 1.3229167,-0.529167 h 1.5875 l 1.3229167,0.529167 0,-1.058333 -1.3229167,-1.5875003 0,-4.4979166 C 7.14375,4.1889951 6.8791667,3.4395833 6.35,2.9104166 Z"
       id="path1043"
       sodipodi:nodetypes="csccccccccsc" />
    <rect
       style="fill:none;fill-opacity:1;stroke:#000000;stroke-width:0.264583;stroke-linecap:round;stroke-linejoin:round;stroke-miterlimit:4;stroke-dasharray:none;stop-color:#000000"
       id="rect14-6"
       width="8.2020836"
       height="11.377083"
       x="2.2489581"
       y="1.1906248"
       rx="1.1906247"
       ry="1.1906252" />
    <path
       id="rect839"
       style="fill:#000000;stroke:none;stroke-width:0.264583;stroke-linecap:round;stroke-linejoin:round;stroke-miterlimit:4;stroke-dasharray:none;stop-color:#000000"
       d="M 6.35,0 C 4.9695386,-7.9999997e-8 5.0270833,1.5875 3.96875,1.5875 2.9104166,1.5875 2.9104167,1.8520833 2.9104167,2.38125 H 9.7895833 C 9.7895843,1.8520833 9.7895823,1.5875 8.7312495,1.5875 7.6729164,1.5875 7.7304614,8.0000003e-8 6.35,0 Z m 0,0.26458334 c 0.219188,0 0.396875,0.17768698 0.396875,0.39687499 0,0.21918804 -0.177687,0.39687507 -0.396875,0.39687507 -0.219188,0 -0.396875,-0.17768703 -0.396875,-0.39687507 0,-0.21918801 0.177687,-0.39687499 0.396875,-0.39687499 z"
       sodipodi:nodetypes="ssccsssssss" />
  </g>
</svg>
