<svg xmlns="http://www.w3.org/2000/svg" xmlns:xlink="http://www.w3.org/1999/xlink" height="220.5" width="517.5"><defs><linearGradient id="a" y2="953.6" gradientUnits="userSpaceOnUse" x2="303.9" y1="882.4" x1="303.9"><stop stop-color="#0096e0" offset="0"/><stop stop-color="#FFF" offset="1"/></linearGradient><linearGradient xlink:href="#a" id="c" gradientUnits="userSpaceOnUse" x1="303.9" y1="882.4" x2="303.9" y2="953.6" gradientTransform="translate(33.5 32)"/><linearGradient xlink:href="#a" id="b" gradientUnits="userSpaceOnUse" x1="303.9" y1="882.4" x2="303.9" y2="953.6" gradientTransform="translate(33.5 32)"/></defs><path stroke-linejoin="round" style="marker-start:none;marker-mid:none" d="M7.5 125.5h319l73-118v118H510V213H7.5Z" stroke="#000" stroke-linecap="round" stroke-miterlimit="5.9" stroke-width="15" fill="none"/><g style="text-align:start;letter-spacing:0;word-spacing:0;writing-mode:lr-tb;text-anchor:start;fill:url(#b)" font-weight="bold" font-size="96" stroke="#0096e0" font-family="'Helvetica LT Std'" fill="url(#a)" transform="translate(-33.5 -796.4)"><path d="M147.6 896.2h20.5v-12h-55v12h20.4v55.7h14.1v-55.7m28.9 55.7h13.8v-26.5H205c10.5 0 11 3.6 11 12.8 0 7 .6 10.5 1.6 13.7H233V950c-3-1.2-3-3.6-3-13.5 0-12.6-3-14.7-8.6-17.1 6.7-2.3 10.5-8.7 10.5-16.2 0-5.8-3.3-19-21.3-19h-34.2v67.6m13.8-38v-18H208c8.3 0 9.9 5.3 9.9 8.9 0 6.6-3.6 9.2-11 9.2h-16.6m67.3-29.7h-14.2V952h14.2v-67.7m27.2 43.2H301c18.2 0 21.6-15.5 21.6-21.6 0-13.3-8-21.7-21-21.7h-30.9V952h14.1v-24.4m0-11.7V896H296c8.8 0 12.5 2.7 12.5 9.3 0 3 0 10.6-10.6 10.6h-13m45.7 2.1c0 31.8 23.6 35.6 32.5 35.6 8.9 0 32.5-3.8 32.5-35.6 0-31.7-23.6-35.6-32.5-35.6-8.9 0-32.5 3.9-32.5 35.6m14.1 0c0-18.9 10.8-23.6 18.4-23.6 7.6 0 18.4 4.7 18.4 23.6 0 18.9-10.8 23.7-18.4 23.7-7.6 0-18.4-4.7-18.4-23.7m76.3-33.8h-14.2V952h47.8v-12.3H421v-55.4m56.4-.1h-14.1V952h14.1v-67.7" style="fill:url(#c)"/></g></svg>
