<svg xmlns="http://www.w3.org/2000/svg" width="318" height="608"><g style="display:inline"><path style="fill:#ee3224;fill-opacity:1;stroke:none" d="M176 10 17 618h318z" transform="translate(-17 -10)"/><path style="fill:#fff;fill-opacity:1;stroke:none" d="M176 55 33 607h286z" transform="translate(-17 -10)"/><path d="M176 90 46 599h260z" style="fill:#ee3224;fill-opacity:1;stroke:none" transform="translate(-17 -10)"/><path style="fill:#fff;fill-opacity:1;stroke:none" d="m176 185-17 182-66 130.5 83-83.5 83 83.5L193 367Z" transform="translate(-17 -10)"/><g style="font-style:normal;font-variant:normal;font-weight:700;font-stretch:normal;font-size:85px;line-height:125%;font-family:'Helvetica LT Std';-inkscape-font-specification:'Helvetica LT Std Bold';text-align:center;letter-spacing:10px;word-spacing:0;writing-mode:lr-tb;text-anchor:middle;fill:#fff;fill-opacity:1;stroke:none"><path d="M100.6 556.5h-.2L76.2 514H62.7v61h12v-43.5h.1L99.7 575h12.8v-61h-12v42.5M147.7 562.4h22.5L174 575H188l-21.5-61h-14.8L130 575h13.4l4.3-12.6m11.2-34.7h.2l7.5 24.2h-15.5l7.8-24.2M206.2 575h12.5v-23.9h13.1c9.5 0 10 3.2 10 11.6 0 6.3.5 9.4 1.3 12.3h14.2v-1.6c-2.8-1-2.8-3.2-2.8-12.2 0-11.4-2.7-13.2-7.7-15.4 6-2 9.4-7.9 9.4-14.6 0-5.2-3-17.2-19.2-17.2h-30.8v61m12.5-34.2v-16.3h15.9c7.4 0 8.9 4.8 8.9 8 0 6-3.2 8.3-9.9 8.3h-15"/></g><path style="fill:none;stroke:#fff;stroke-width:7;stroke-linecap:butt;stroke-linejoin:miter;stroke-miterlimit:4;stroke-dasharray:none;stroke-opacity:1" d="M176 437v67.5" transform="translate(-17 -10)"/></g></svg>
